{
	"asset":{
		"generator":"Khronos glTF Blender I/O v4.1.63",
		"version":"2.0"
	},
	"scene":0,
	"scenes":[
		{
			"name":"Scene",
			"nodes":[
				0,
				4
			]
		}
	],
	"nodes":[
		{
			"mesh":0,
			"name":"Rocks",
			"rotation":[
				0.70710688829422,
				0,
				0,
				0.7071066498756409
			],
			"translation":[
				0.22075694799423218,
				0.882591724395752,
				-0.044926341623067856
			]
		},
		{
			"name":"RetopoGroup002"
		},
		{
			"children":[
				1
			],
			"name":"Collada visual scene group",
			"rotation":[
				0.70710688829422,
				0,
				0,
				0.7071066498756409
			]
		},
		{
			"children":[
				2
			],
			"name":"RootNode (model correction matrix)"
		},
		{
			"children":[
				3
			],
			"name":"RootNode (gltf orientation matrix)",
			"rotation":[
				-0.70710688829422,
				0,
				0,
				0.7071066498756409
			]
		}
	],
	"materials":[
		{
			"doubleSided":true,
			"name":"Material.001",
			"pbrMetallicRoughness":{
				"baseColorTexture":{
					"index":0
				},
				"metallicFactor":0,
				"roughnessFactor":0.5
			}
		}
	],
	"meshes":[
		{
			"name":"ZBrushPolyMesh3D.003",
			"primitives":[
				{
					"attributes":{
						"POSITION":0,
						"NORMAL":1,
						"TEXCOORD_0":2
					},
					"indices":3,
					"material":0
				}
			]
		}
	],
	"textures":[
		{
			"sampler":0,
			"source":0
		}
	],
	"images":[
		{
			"mimeType":"image/jpeg",
			"name":"texture-rock",
			"uri":"textures/texture-rock.jpg"
		}
	],
	"accessors":[
		{
			"bufferView":0,
			"componentType":5126,
			"count":27577,
			"max":[
				1.0359156131744385,
				1.438563585281372,
				0.9170221090316772
			],
			"min":[
				-1.3542277812957764,
				-1.657494068145752,
				-0.059121448546648026
			],
			"type":"VEC3"
		},
		{
			"bufferView":1,
			"componentType":5126,
			"count":27577,
			"type":"VEC3"
		},
		{
			"bufferView":2,
			"componentType":5126,
			"count":27577,
			"type":"VEC2"
		},
		{
			"bufferView":3,
			"componentType":5123,
			"count":148677,
			"type":"SCALAR"
		}
	],
	"bufferViews":[
		{
			"buffer":0,
			"byteLength":330924,
			"byteOffset":0,
			"target":34962
		},
		{
			"buffer":0,
			"byteLength":330924,
			"byteOffset":330924,
			"target":34962
		},
		{
			"buffer":0,
			"byteLength":220616,
			"byteOffset":661848,
			"target":34962
		},
		{
			"buffer":0,
			"byteLength":297354,
			"byteOffset":882464,
			"target":34963
		}
	],
	"samplers":[
		{
			"magFilter":9729,
			"minFilter":9987
		}
	],
	"buffers":[
		{
			"byteLength":1179820,
			"uri":"scene.bin"
		}
	]
}
