{
	"asset":{
		"generator":"Khronos glTF Blender I/O v4.1.63",
		"version":"2.0"
	},
	"extensionsUsed":[
		"KHR_materials_specular"
	],
	"scene":0,
	"scenes":[
		{
			"name":"Scene",
			"nodes":[
				0
			]
		}
	],
	"nodes":[
		{
			"mesh":0,
			"name":"mesh",
			"rotation":[
				0.70710688829422,
				0,
				0,
				0.7071066498756409
			],
			"scale":[
				0.454604834318161,
				0.4546048641204834,
				0.4546048641204834
			],
			"translation":[
				0.00367659330368042,
				0.4160313010215759,
				0
			]
		}
	],
	"materials":[
		{
			"doubleSided":true,
			"extensions":{
				"KHR_materials_specular":{
					"specularFactor":0
				}
			},
			"name":"mat0.001",
			"pbrMetallicRoughness":{
				"baseColorTexture":{
					"index":0
				},
				"metallicFactor":0
			}
		}
	],
	"meshes":[
		{
			"name":"mesh.001",
			"primitives":[
				{
					"attributes":{
						"POSITION":0,
						"NORMAL":1,
						"TEXCOORD_0":2
					},
					"indices":3,
					"material":0
				}
			]
		}
	],
	"textures":[
		{
			"sampler":0,
			"source":0
		}
	],
	"images":[
		{
			"mimeType":"image/png",
			"name":"albedo",
			"uri":"textures/albedo.png"
		}
	],
	"accessors":[
		{
			"bufferView":0,
			"componentType":5126,
			"count":44990,
			"max":[
				0.3547983169555664,
				0.2959746718406677,
				0.9420340657234192
			],
			"min":[
				-0.3547983169555664,
				-0.2959746718406677,
				-0.9420340657234192
			],
			"type":"VEC3"
		},
		{
			"bufferView":1,
			"componentType":5126,
			"count":44990,
			"type":"VEC3"
		},
		{
			"bufferView":2,
			"componentType":5126,
			"count":44990,
			"type":"VEC2"
		},
		{
			"bufferView":3,
			"componentType":5123,
			"count":45000,
			"type":"SCALAR"
		}
	],
	"bufferViews":[
		{
			"buffer":0,
			"byteLength":539880,
			"byteOffset":0,
			"target":34962
		},
		{
			"buffer":0,
			"byteLength":539880,
			"byteOffset":539880,
			"target":34962
		},
		{
			"buffer":0,
			"byteLength":359920,
			"byteOffset":1079760,
			"target":34962
		},
		{
			"buffer":0,
			"byteLength":90000,
			"byteOffset":1439680,
			"target":34963
		}
	],
	"samplers":[
		{
			"magFilter":9729,
			"minFilter":9987
		}
	],
	"buffers":[
		{
			"byteLength":1529680,
			"uri":"scene.bin"
		}
	]
}
