{
	"asset":{
		"generator":"Khronos glTF Blender I/O v4.1.63",
		"version":"2.0"
	},
	"extensionsUsed":[
		"KHR_materials_specular"
	],
	"scene":0,
	"scenes":[
		{
			"name":"Scene",
			"nodes":[
				0
			]
		}
	],
	"nodes":[
		{
			"mesh":0,
			"name":"mesh",
			"rotation":[
				0.70710688829422,
				0,
				0,
				0.7071066498756409
			],
			"scale":[
				0.4581610858440399,
				0.4581610858440399,
				0.4581610858440399
			],
			"translation":[
				0.004038720857352018,
				0.411613792181015,
				-0.0017749841790646315
			]
		}
	],
	"materials":[
		{
			"doubleSided":true,
			"extensions":{
				"KHR_materials_specular":{
					"specularFactor":0
				}
			},
			"name":"mat0.002",
			"pbrMetallicRoughness":{
				"baseColorTexture":{
					"index":0
				},
				"metallicFactor":0
			}
		},
		{
			"doubleSided":true,
			"name":"FBHead_preview_mat.002",
			"pbrMetallicRoughness":{
				"baseColorTexture":{
					"index":1
				},
				"metallicFactor":0,
				"roughnessFactor":0.5
			}
		}
	],
	"meshes":[
		{
			"name":"mesh.002",
			"primitives":[
				{
					"attributes":{
						"POSITION":0,
						"NORMAL":1,
						"TEXCOORD_0":2
					},
					"indices":3,
					"material":0
				},
				{
					"attributes":{
						"POSITION":4,
						"NORMAL":5,
						"TEXCOORD_0":6
					},
					"indices":7,
					"material":1
				}
			]
		}
	],
	"textures":[
		{
			"sampler":0,
			"source":0
		},
		{
			"sampler":0,
			"source":1
		}
	],
	"images":[
		{
			"mimeType":"image/png",
			"name":"albedo",
			"uri":"textures/albedo.png"
		},
		{
			"mimeType":"image/png",
			"name":"FBHead_baked_tex",
			"uri":"textures/FBHead_baked_tex.png"
		}
	],
	"accessors":[
		{
			"bufferView":0,
			"componentType":5126,
			"count":41541,
			"max":[
				0.3482767641544342,
				0.2624739706516266,
				0.9552855491638184
			],
			"min":[
				-0.3542934060096741,
				-0.2624739706516266,
				-0.7171206474304199
			],
			"type":"VEC3"
		},
		{
			"bufferView":1,
			"componentType":5126,
			"count":41541,
			"type":"VEC3"
		},
		{
			"bufferView":2,
			"componentType":5126,
			"count":41541,
			"type":"VEC2"
		},
		{
			"bufferView":3,
			"componentType":5123,
			"count":41547,
			"type":"SCALAR"
		},
		{
			"bufferView":4,
			"componentType":5126,
			"count":5209,
			"max":[
				0.07777906209230423,
				0.1170777678489685,
				-0.6518728733062744
			],
			"min":[
				-0.15090270340442657,
				-0.14743013679981232,
				-0.9756749868392944
			],
			"type":"VEC3"
		},
		{
			"bufferView":5,
			"componentType":5126,
			"count":5209,
			"type":"VEC3"
		},
		{
			"bufferView":6,
			"componentType":5126,
			"count":5209,
			"type":"VEC2"
		},
		{
			"bufferView":7,
			"componentType":5123,
			"count":29808,
			"type":"SCALAR"
		}
	],
	"bufferViews":[
		{
			"buffer":0,
			"byteLength":498492,
			"byteOffset":0,
			"target":34962
		},
		{
			"buffer":0,
			"byteLength":498492,
			"byteOffset":498492,
			"target":34962
		},
		{
			"buffer":0,
			"byteLength":332328,
			"byteOffset":996984,
			"target":34962
		},
		{
			"buffer":0,
			"byteLength":83094,
			"byteOffset":1329312,
			"target":34963
		},
		{
			"buffer":0,
			"byteLength":62508,
			"byteOffset":1412408,
			"target":34962
		},
		{
			"buffer":0,
			"byteLength":62508,
			"byteOffset":1474916,
			"target":34962
		},
		{
			"buffer":0,
			"byteLength":41672,
			"byteOffset":1537424,
			"target":34962
		},
		{
			"buffer":0,
			"byteLength":59616,
			"byteOffset":1579096,
			"target":34963
		}
	],
	"samplers":[
		{
			"magFilter":9729,
			"minFilter":9987
		}
	],
	"buffers":[
		{
			"byteLength":1638712,
			"uri":"scene.bin"
		}
	]
}
